<?xml version="1.0" encoding="UTF-8" standalone="no"?>
<!DOCTYPE svg PUBLIC "-//W3C//DTD SVG 1.1//EN"
 "http://www.w3.org/Graphics/SVG/1.1/DTD/svg11.dtd">
<!-- Generated by graphviz version 2.30.1 (20130529.1541)
 -->
<!-- Title: controllers_diagram Pages: 1 -->
<svg width="1016pt" height="867pt"
 viewBox="0.00 0.00 1016.00 867.00" xmlns="http://www.w3.org/2000/svg" xmlns:xlink="http://www.w3.org/1999/xlink">
<g id="graph0" class="graph" transform="scale(1 1) rotate(0) translate(4 863)">
<title>controllers_diagram</title>
<polygon fill="white" stroke="white" points="-4,5 -4,-863 1013,-863 1013,5 -4,5"/>
<!-- _diagram_info -->
<g id="node1" class="node"><title>_diagram_info</title>
<text text-anchor="start" x="808" y="-63.6" font-family="Times,serif" font-size="13.00">Controllers diagram</text>
<text text-anchor="start" x="808" y="-49.6" font-family="Times,serif" font-size="13.00">Date: May 29 2013 &#45; 22:16</text>
<text text-anchor="start" x="808" y="-35.6" font-family="Times,serif" font-size="13.00">Migration version: 20130529153624</text>
<text text-anchor="start" x="808" y="-21.6" font-family="Times,serif" font-size="13.00">Generated by RailRoady 1.1.0</text>
<text text-anchor="start" x="808" y="-7.6" font-family="Times,serif" font-size="13.00">http://railroady.prestonlee.com</text>
</g>
<!-- ApplicationController -->
<g id="node2" class="node"><title>ApplicationController</title>
<path fill="none" stroke="black" d="M293.22,-370.298C293.22,-370.298 486.22,-370.298 486.22,-370.298 492.22,-370.298 498.22,-376.298 498.22,-382.298 498.22,-382.298 498.22,-481.298 498.22,-481.298 498.22,-487.298 492.22,-493.298 486.22,-493.298 486.22,-493.298 293.22,-493.298 293.22,-493.298 287.22,-493.298 281.22,-487.298 281.22,-481.298 281.22,-481.298 281.22,-382.298 281.22,-382.298 281.22,-376.298 287.22,-370.298 293.22,-370.298"/>
<text text-anchor="middle" x="389.72" y="-478.098" font-family="Times,serif" font-size="14.00">ApplicationController</text>
<polyline fill="none" stroke="black" points="281.22,-470.298 498.22,-470.298 "/>
<text text-anchor="start" x="289.22" y="-455.098" font-family="Times,serif" font-size="14.00">_one_time_conditions_valid_128?</text>
<polyline fill="none" stroke="black" points="281.22,-447.298 498.22,-447.298 "/>
<polyline fill="none" stroke="black" points="281.22,-423.298 498.22,-423.298 "/>
<text text-anchor="start" x="289.22" y="-408.098" font-family="Times,serif" font-size="14.00">_layout</text>
<text text-anchor="start" x="289.22" y="-393.098" font-family="Times,serif" font-size="14.00">after_sign_out_path_for</text>
<text text-anchor="start" x="289.22" y="-378.098" font-family="Times,serif" font-size="14.00">record_not_found</text>
</g>
<!-- ChannelsController -->
<g id="node3" class="node"><title>ChannelsController</title>
<path fill="none" stroke="black" d="M605.84,-312.623C605.84,-312.623 798.84,-312.623 798.84,-312.623 804.84,-312.623 810.84,-318.623 810.84,-324.623 810.84,-324.623 810.84,-543.623 810.84,-543.623 810.84,-549.623 804.84,-555.623 798.84,-555.623 798.84,-555.623 605.84,-555.623 605.84,-555.623 599.84,-555.623 593.84,-549.623 593.84,-543.623 593.84,-543.623 593.84,-324.623 593.84,-324.623 593.84,-318.623 599.84,-312.623 605.84,-312.623"/>
<text text-anchor="middle" x="702.34" y="-540.423" font-family="Times,serif" font-size="14.00">ChannelsController</text>
<polyline fill="none" stroke="black" points="593.84,-532.623 810.84,-532.623 "/>
<text text-anchor="start" x="601.84" y="-517.423" font-family="Times,serif" font-size="14.00">_callback_before_157</text>
<text text-anchor="start" x="601.84" y="-502.423" font-family="Times,serif" font-size="14.00">_one_time_conditions_valid_156?</text>
<text text-anchor="start" x="601.84" y="-487.423" font-family="Times,serif" font-size="14.00">_one_time_conditions_valid_158?</text>
<text text-anchor="start" x="601.84" y="-472.423" font-family="Times,serif" font-size="14.00">add_channel_to_user</text>
<text text-anchor="start" x="601.84" y="-457.423" font-family="Times,serif" font-size="14.00">create</text>
<text text-anchor="start" x="601.84" y="-442.423" font-family="Times,serif" font-size="14.00">destroy</text>
<text text-anchor="start" x="601.84" y="-427.423" font-family="Times,serif" font-size="14.00">edit</text>
<text text-anchor="start" x="601.84" y="-412.423" font-family="Times,serif" font-size="14.00">index</text>
<text text-anchor="start" x="601.84" y="-397.423" font-family="Times,serif" font-size="14.00">new</text>
<text text-anchor="start" x="601.84" y="-382.423" font-family="Times,serif" font-size="14.00">show</text>
<text text-anchor="start" x="601.84" y="-367.423" font-family="Times,serif" font-size="14.00">update</text>
<polyline fill="none" stroke="black" points="593.84,-359.623 810.84,-359.623 "/>
<polyline fill="none" stroke="black" points="593.84,-335.623 810.84,-335.623 "/>
<text text-anchor="start" x="601.84" y="-320.423" font-family="Times,serif" font-size="14.00">_layout</text>
</g>
<!-- ApplicationController&#45;&gt;ChannelsController -->
<g id="edge1" class="edge"><title>ApplicationController&#45;&gt;ChannelsController</title>
<path fill="none" stroke="black" d="M498.62,-432.608C529.458,-432.838 563.014,-433.087 593.829,-433.316"/>
</g>
<!-- CommentsController -->
<g id="node4" class="node"><title>CommentsController</title>
<path fill="none" stroke="black" d="M226.226,-50.5C226.226,-50.5 419.226,-50.5 419.226,-50.5 425.226,-50.5 431.226,-56.5 431.226,-62.5 431.226,-62.5 431.226,-191.5 431.226,-191.5 431.226,-197.5 425.226,-203.5 419.226,-203.5 419.226,-203.5 226.226,-203.5 226.226,-203.5 220.226,-203.5 214.226,-197.5 214.226,-191.5 214.226,-191.5 214.226,-62.5 214.226,-62.5 214.226,-56.5 220.226,-50.5 226.226,-50.5"/>
<text text-anchor="middle" x="322.726" y="-188.3" font-family="Times,serif" font-size="14.00">CommentsController</text>
<polyline fill="none" stroke="black" points="214.226,-180.5 431.226,-180.5 "/>
<text text-anchor="start" x="222.226" y="-165.3" font-family="Times,serif" font-size="14.00">_callback_before_167</text>
<text text-anchor="start" x="222.226" y="-150.3" font-family="Times,serif" font-size="14.00">_one_time_conditions_valid_166?</text>
<text text-anchor="start" x="222.226" y="-135.3" font-family="Times,serif" font-size="14.00">_one_time_conditions_valid_168?</text>
<text text-anchor="start" x="222.226" y="-120.3" font-family="Times,serif" font-size="14.00">create</text>
<text text-anchor="start" x="222.226" y="-105.3" font-family="Times,serif" font-size="14.00">destroy</text>
<polyline fill="none" stroke="black" points="214.226,-97.5 431.226,-97.5 "/>
<polyline fill="none" stroke="black" points="214.226,-73.5 431.226,-73.5 "/>
<text text-anchor="start" x="222.226" y="-58.3" font-family="Times,serif" font-size="14.00">_layout</text>
</g>
<!-- ApplicationController&#45;&gt;CommentsController -->
<g id="edge2" class="edge"><title>ApplicationController&#45;&gt;CommentsController</title>
<path fill="none" stroke="black" d="M376.163,-370.118C365.61,-322.107 350.906,-255.211 339.593,-203.741"/>
</g>
<!-- ErrorController -->
<g id="node5" class="node"><title>ErrorController</title>
<path fill="none" stroke="black" d="M67.0484,-523.091C67.0484,-523.091 152.048,-523.091 152.048,-523.091 158.048,-523.091 164.048,-529.091 164.048,-535.091 164.048,-535.091 164.048,-604.091 164.048,-604.091 164.048,-610.091 158.048,-616.091 152.048,-616.091 152.048,-616.091 67.0484,-616.091 67.0484,-616.091 61.0484,-616.091 55.0484,-610.091 55.0484,-604.091 55.0484,-604.091 55.0484,-535.091 55.0484,-535.091 55.0484,-529.091 61.0484,-523.091 67.0484,-523.091"/>
<text text-anchor="middle" x="109.548" y="-600.891" font-family="Times,serif" font-size="14.00">ErrorController</text>
<polyline fill="none" stroke="black" points="55.0484,-593.091 164.048,-593.091 "/>
<text text-anchor="start" x="63.0484" y="-577.891" font-family="Times,serif" font-size="14.00">handle404</text>
<polyline fill="none" stroke="black" points="55.0484,-570.091 164.048,-570.091 "/>
<polyline fill="none" stroke="black" points="55.0484,-546.091 164.048,-546.091 "/>
<text text-anchor="start" x="63.0484" y="-530.891" font-family="Times,serif" font-size="14.00">_layout</text>
</g>
<!-- ApplicationController&#45;&gt;ErrorController -->
<g id="edge3" class="edge"><title>ApplicationController&#45;&gt;ErrorController</title>
<path fill="none" stroke="black" d="M280.997,-485.27C241.005,-504.939 197.418,-526.376 164.2,-542.713"/>
</g>
<!-- FeedsController -->
<g id="node6" class="node"><title>FeedsController</title>
<path fill="none" stroke="black" d="M488.392,-599.5C488.392,-599.5 681.392,-599.5 681.392,-599.5 687.392,-599.5 693.392,-605.5 693.392,-611.5 693.392,-611.5 693.392,-740.5 693.392,-740.5 693.392,-746.5 687.392,-752.5 681.392,-752.5 681.392,-752.5 488.392,-752.5 488.392,-752.5 482.392,-752.5 476.392,-746.5 476.392,-740.5 476.392,-740.5 476.392,-611.5 476.392,-611.5 476.392,-605.5 482.392,-599.5 488.392,-599.5"/>
<text text-anchor="middle" x="584.892" y="-737.3" font-family="Times,serif" font-size="14.00">FeedsController</text>
<polyline fill="none" stroke="black" points="476.392,-729.5 693.392,-729.5 "/>
<text text-anchor="start" x="484.392" y="-714.3" font-family="Times,serif" font-size="14.00">_callback_before_187</text>
<text text-anchor="start" x="484.392" y="-699.3" font-family="Times,serif" font-size="14.00">_one_time_conditions_valid_186?</text>
<text text-anchor="start" x="484.392" y="-684.3" font-family="Times,serif" font-size="14.00">_one_time_conditions_valid_188?</text>
<text text-anchor="start" x="484.392" y="-669.3" font-family="Times,serif" font-size="14.00">check_as_favourite</text>
<text text-anchor="start" x="484.392" y="-654.3" font-family="Times,serif" font-size="14.00">show</text>
<polyline fill="none" stroke="black" points="476.392,-646.5 693.392,-646.5 "/>
<polyline fill="none" stroke="black" points="476.392,-622.5 693.392,-622.5 "/>
<text text-anchor="start" x="484.392" y="-607.3" font-family="Times,serif" font-size="14.00">_layout</text>
</g>
<!-- ApplicationController&#45;&gt;FeedsController -->
<g id="edge4" class="edge"><title>ApplicationController&#45;&gt;FeedsController</title>
<path fill="none" stroke="black" d="M438.97,-493.421C464.604,-525.495 496.192,-565.017 523.415,-599.079"/>
</g>
<!-- HomeController -->
<g id="node7" class="node"><title>HomeController</title>
<path fill="none" stroke="black" d="M278.566,-690.429C278.566,-690.429 366.566,-690.429 366.566,-690.429 372.566,-690.429 378.566,-696.429 378.566,-702.429 378.566,-702.429 378.566,-771.429 378.566,-771.429 378.566,-777.429 372.566,-783.429 366.566,-783.429 366.566,-783.429 278.566,-783.429 278.566,-783.429 272.566,-783.429 266.566,-777.429 266.566,-771.429 266.566,-771.429 266.566,-702.429 266.566,-702.429 266.566,-696.429 272.566,-690.429 278.566,-690.429"/>
<text text-anchor="middle" x="322.566" y="-768.229" font-family="Times,serif" font-size="14.00">HomeController</text>
<polyline fill="none" stroke="black" points="266.566,-760.429 378.566,-760.429 "/>
<text text-anchor="start" x="274.566" y="-745.229" font-family="Times,serif" font-size="14.00">index</text>
<polyline fill="none" stroke="black" points="266.566,-737.429 378.566,-737.429 "/>
<polyline fill="none" stroke="black" points="266.566,-713.429 378.566,-713.429 "/>
<text text-anchor="start" x="274.566" y="-698.229" font-family="Times,serif" font-size="14.00">_layout</text>
</g>
<!-- ApplicationController&#45;&gt;HomeController -->
<g id="edge5" class="edge"><title>ApplicationController&#45;&gt;HomeController</title>
<path fill="none" stroke="black" d="M376.13,-493.546C363.33,-551.709 344.436,-637.56 332.845,-690.223"/>
</g>
<!-- ServicesController -->
<g id="node9" class="node"><title>ServicesController</title>
<path fill="none" stroke="black" d="M12,-212.5C12,-212.5 205,-212.5 205,-212.5 211,-212.5 217,-218.5 217,-224.5 217,-224.5 217,-368.5 217,-368.5 217,-374.5 211,-380.5 205,-380.5 205,-380.5 12,-380.5 12,-380.5 6,-380.5 0,-374.5 0,-368.5 0,-368.5 0,-224.5 0,-224.5 0,-218.5 6,-212.5 12,-212.5"/>
<text text-anchor="middle" x="108.5" y="-365.3" font-family="Times,serif" font-size="14.00">ServicesController</text>
<polyline fill="none" stroke="black" points="0,-357.5 217,-357.5 "/>
<text text-anchor="start" x="8" y="-342.3" font-family="Times,serif" font-size="14.00">_one_time_conditions_valid_202?</text>
<text text-anchor="start" x="8" y="-327.3" font-family="Times,serif" font-size="14.00">_one_time_conditions_valid_206?</text>
<text text-anchor="start" x="8" y="-312.3" font-family="Times,serif" font-size="14.00">create</text>
<text text-anchor="start" x="8" y="-297.3" font-family="Times,serif" font-size="14.00">destroy</text>
<text text-anchor="start" x="8" y="-282.3" font-family="Times,serif" font-size="14.00">index</text>
<text text-anchor="start" x="8" y="-267.3" font-family="Times,serif" font-size="14.00">signout</text>
<polyline fill="none" stroke="black" points="0,-259.5 217,-259.5 "/>
<polyline fill="none" stroke="black" points="0,-235.5 217,-235.5 "/>
<text text-anchor="start" x="8" y="-220.3" font-family="Times,serif" font-size="14.00">_layout</text>
</g>
<!-- ApplicationController&#45;&gt;ServicesController -->
<g id="edge6" class="edge"><title>ApplicationController&#45;&gt;ServicesController</title>
<path fill="none" stroke="black" d="M280.993,-379.488C260.127,-369.45 238.273,-358.935 217.401,-348.894"/>
</g>
<!-- UsersController -->
<g id="node10" class="node"><title>UsersController</title>
<path fill="none" stroke="black" d="M490.678,-105.799C490.678,-105.799 683.678,-105.799 683.678,-105.799 689.678,-105.799 695.678,-111.799 695.678,-117.799 695.678,-117.799 695.678,-261.799 695.678,-261.799 695.678,-267.799 689.678,-273.799 683.678,-273.799 683.678,-273.799 490.678,-273.799 490.678,-273.799 484.678,-273.799 478.678,-267.799 478.678,-261.799 478.678,-261.799 478.678,-117.799 478.678,-117.799 478.678,-111.799 484.678,-105.799 490.678,-105.799"/>
<text text-anchor="middle" x="587.178" y="-258.599" font-family="Times,serif" font-size="14.00">UsersController</text>
<polyline fill="none" stroke="black" points="478.678,-250.799 695.678,-250.799 "/>
<text text-anchor="start" x="486.678" y="-235.599" font-family="Times,serif" font-size="14.00">_one_time_conditions_valid_210?</text>
<text text-anchor="start" x="486.678" y="-220.599" font-family="Times,serif" font-size="14.00">edit</text>
<text text-anchor="start" x="486.678" y="-205.599" font-family="Times,serif" font-size="14.00">index</text>
<text text-anchor="start" x="486.678" y="-190.599" font-family="Times,serif" font-size="14.00">new</text>
<text text-anchor="start" x="486.678" y="-175.599" font-family="Times,serif" font-size="14.00">show</text>
<text text-anchor="start" x="486.678" y="-160.599" font-family="Times,serif" font-size="14.00">update</text>
<polyline fill="none" stroke="black" points="478.678,-152.799 695.678,-152.799 "/>
<polyline fill="none" stroke="black" points="478.678,-128.799 695.678,-128.799 "/>
<text text-anchor="start" x="486.678" y="-113.599" font-family="Times,serif" font-size="14.00">_layout</text>
</g>
<!-- ApplicationController&#45;&gt;UsersController -->
<g id="edge7" class="edge"><title>ApplicationController&#45;&gt;UsersController</title>
<path fill="none" stroke="black" d="M440.058,-370.105C463.824,-340.978 492.561,-305.759 518.307,-274.205"/>
</g>
<!-- RegistrationsController -->
<g id="node8" class="node"><title>RegistrationsController</title>
<path fill="none" stroke="black" d="M62,-750.5C62,-750.5 190,-750.5 190,-750.5 196,-750.5 202,-756.5 202,-762.5 202,-762.5 202,-846.5 202,-846.5 202,-852.5 196,-858.5 190,-858.5 190,-858.5 62,-858.5 62,-858.5 56,-858.5 50,-852.5 50,-846.5 50,-846.5 50,-762.5 50,-762.5 50,-756.5 56,-750.5 62,-750.5"/>
<text text-anchor="middle" x="126" y="-843.3" font-family="Times,serif" font-size="14.00">RegistrationsController</text>
<polyline fill="none" stroke="black" points="50,-835.5 202,-835.5 "/>
<text text-anchor="start" x="58" y="-820.3" font-family="Times,serif" font-size="14.00">create</text>
<text text-anchor="start" x="58" y="-805.3" font-family="Times,serif" font-size="14.00">update</text>
<polyline fill="none" stroke="black" points="50,-797.5 202,-797.5 "/>
<polyline fill="none" stroke="black" points="50,-773.5 202,-773.5 "/>
<text text-anchor="start" x="58" y="-758.3" font-family="Times,serif" font-size="14.00">_layout</text>
</g>
</g>
</svg>
