<?xml version="1.0" encoding="UTF-8" standalone="no"?>
<!DOCTYPE svg PUBLIC "-//W3C//DTD SVG 1.1//EN"
 "http://www.w3.org/Graphics/SVG/1.1/DTD/svg11.dtd">
<!-- Generated by graphviz version 2.30.1 (20130221.2233)
 -->
<!-- Title: controllers_diagram Pages: 1 -->
<svg width="964pt" height="746pt"
 viewBox="0.00 0.00 964.00 746.00" xmlns="http://www.w3.org/2000/svg" xmlns:xlink="http://www.w3.org/1999/xlink">
<g id="graph0" class="graph" transform="scale(1 1) rotate(0) translate(4 742)">
<title>controllers_diagram</title>
<polygon fill="white" stroke="white" points="-4,5 -4,-742 961,-742 961,5 -4,5"/>
<!-- _diagram_info -->
<g id="node1" class="node"><title>_diagram_info</title>
<text text-anchor="start" x="756" y="-723.6" font-family="Times,serif" font-size="13.00">Controllers diagram</text>
<text text-anchor="start" x="756" y="-709.6" font-family="Times,serif" font-size="13.00">Date: Apr 16 2013 &#45; 01:26</text>
<text text-anchor="start" x="756" y="-695.6" font-family="Times,serif" font-size="13.00">Migration version: 20120904232419</text>
<text text-anchor="start" x="756" y="-681.6" font-family="Times,serif" font-size="13.00">Generated by RailRoady 1.1.0</text>
<text text-anchor="start" x="756" y="-667.6" font-family="Times,serif" font-size="13.00">http://railroady.prestonlee.com</text>
</g>
<!-- ApplicationController -->
<g id="node2" class="node"><title>ApplicationController</title>
<path fill="none" stroke="black" d="M264.988,-236.691C264.988,-236.691 450.988,-236.691 450.988,-236.691 456.988,-236.691 462.988,-242.691 462.988,-248.691 462.988,-248.691 462.988,-347.691 462.988,-347.691 462.988,-353.691 456.988,-359.691 450.988,-359.691 450.988,-359.691 264.988,-359.691 264.988,-359.691 258.988,-359.691 252.988,-353.691 252.988,-347.691 252.988,-347.691 252.988,-248.691 252.988,-248.691 252.988,-242.691 258.988,-236.691 264.988,-236.691"/>
<text text-anchor="middle" x="357.988" y="-344.491" font-family="Times,serif" font-size="14.00">ApplicationController</text>
<polyline fill="none" stroke="black" points="252.988,-336.691 462.988,-336.691 "/>
<text text-anchor="start" x="260.988" y="-321.491" font-family="Times,serif" font-size="14.00">_one_time_conditions_valid_116?</text>
<polyline fill="none" stroke="black" points="252.988,-313.691 462.988,-313.691 "/>
<polyline fill="none" stroke="black" points="252.988,-289.691 462.988,-289.691 "/>
<text text-anchor="start" x="260.988" y="-274.491" font-family="Times,serif" font-size="14.00">_layout</text>
<text text-anchor="start" x="260.988" y="-259.491" font-family="Times,serif" font-size="14.00">after_sign_out_path_for</text>
<text text-anchor="start" x="260.988" y="-244.491" font-family="Times,serif" font-size="14.00">record_not_found</text>
</g>
<!-- ChannelsController -->
<g id="node3" class="node"><title>ChannelsController</title>
<path fill="none" stroke="black" d="M546.1,-177.013C546.1,-177.013 732.1,-177.013 732.1,-177.013 738.1,-177.013 744.1,-183.013 744.1,-189.013 744.1,-189.013 744.1,-408.013 744.1,-408.013 744.1,-414.013 738.1,-420.013 732.1,-420.013 732.1,-420.013 546.1,-420.013 546.1,-420.013 540.1,-420.013 534.1,-414.013 534.1,-408.013 534.1,-408.013 534.1,-189.013 534.1,-189.013 534.1,-183.013 540.1,-177.013 546.1,-177.013"/>
<text text-anchor="middle" x="639.1" y="-404.813" font-family="Times,serif" font-size="14.00">ChannelsController</text>
<polyline fill="none" stroke="black" points="534.1,-397.013 744.1,-397.013 "/>
<text text-anchor="start" x="542.1" y="-381.813" font-family="Times,serif" font-size="14.00">_callback_before_147</text>
<text text-anchor="start" x="542.1" y="-366.813" font-family="Times,serif" font-size="14.00">_one_time_conditions_valid_146?</text>
<text text-anchor="start" x="542.1" y="-351.813" font-family="Times,serif" font-size="14.00">_one_time_conditions_valid_148?</text>
<text text-anchor="start" x="542.1" y="-336.813" font-family="Times,serif" font-size="14.00">add_channel_to_user</text>
<text text-anchor="start" x="542.1" y="-321.813" font-family="Times,serif" font-size="14.00">create</text>
<text text-anchor="start" x="542.1" y="-306.813" font-family="Times,serif" font-size="14.00">destroy</text>
<text text-anchor="start" x="542.1" y="-291.813" font-family="Times,serif" font-size="14.00">edit</text>
<text text-anchor="start" x="542.1" y="-276.813" font-family="Times,serif" font-size="14.00">index</text>
<text text-anchor="start" x="542.1" y="-261.813" font-family="Times,serif" font-size="14.00">new</text>
<text text-anchor="start" x="542.1" y="-246.813" font-family="Times,serif" font-size="14.00">show</text>
<text text-anchor="start" x="542.1" y="-231.813" font-family="Times,serif" font-size="14.00">update</text>
<polyline fill="none" stroke="black" points="534.1,-224.013 744.1,-224.013 "/>
<polyline fill="none" stroke="black" points="534.1,-200.013 744.1,-200.013 "/>
<text text-anchor="start" x="542.1" y="-184.813" font-family="Times,serif" font-size="14.00">_layout</text>
</g>
<!-- ApplicationController&#45;&gt;ChannelsController -->
<g id="edge1" class="edge"><title>ApplicationController&#45;&gt;ChannelsController</title>
<path fill="none" stroke="black" d="M463.063,-298.311C486.144,-298.338 510.59,-298.366 533.684,-298.392"/>
</g>
<!-- CommentsController -->
<g id="node4" class="node"><title>CommentsController</title>
<path fill="none" stroke="black" d="M269.216,-2.54007C269.216,-2.54007 455.216,-2.54007 455.216,-2.54007 461.216,-2.54007 467.216,-8.54007 467.216,-14.5401 467.216,-14.5401 467.216,-143.54 467.216,-143.54 467.216,-149.54 461.216,-155.54 455.216,-155.54 455.216,-155.54 269.216,-155.54 269.216,-155.54 263.216,-155.54 257.216,-149.54 257.216,-143.54 257.216,-143.54 257.216,-14.5401 257.216,-14.5401 257.216,-8.54007 263.216,-2.54007 269.216,-2.54007"/>
<text text-anchor="middle" x="362.216" y="-140.34" font-family="Times,serif" font-size="14.00">CommentsController</text>
<polyline fill="none" stroke="black" points="257.216,-132.54 467.216,-132.54 "/>
<text text-anchor="start" x="265.216" y="-117.34" font-family="Times,serif" font-size="14.00">_callback_before_157</text>
<text text-anchor="start" x="265.216" y="-102.34" font-family="Times,serif" font-size="14.00">_one_time_conditions_valid_156?</text>
<text text-anchor="start" x="265.216" y="-87.3401" font-family="Times,serif" font-size="14.00">_one_time_conditions_valid_158?</text>
<text text-anchor="start" x="265.216" y="-72.3401" font-family="Times,serif" font-size="14.00">create</text>
<text text-anchor="start" x="265.216" y="-57.3401" font-family="Times,serif" font-size="14.00">destroy</text>
<polyline fill="none" stroke="black" points="257.216,-49.5401 467.216,-49.5401 "/>
<polyline fill="none" stroke="black" points="257.216,-25.5401 467.216,-25.5401 "/>
<text text-anchor="start" x="265.216" y="-10.3401" font-family="Times,serif" font-size="14.00">_layout</text>
</g>
<!-- ApplicationController&#45;&gt;CommentsController -->
<g id="edge2" class="edge"><title>ApplicationController&#45;&gt;CommentsController</title>
<path fill="none" stroke="black" d="M359.177,-236.562C359.661,-211.495 360.225,-182.258 360.735,-155.825"/>
</g>
<!-- ErrorController -->
<g id="node5" class="node"><title>ErrorController</title>
<path fill="none" stroke="black" d="M64.972,-415.235C64.972,-415.235 144.972,-415.235 144.972,-415.235 150.972,-415.235 156.972,-421.235 156.972,-427.235 156.972,-427.235 156.972,-496.235 156.972,-496.235 156.972,-502.235 150.972,-508.235 144.972,-508.235 144.972,-508.235 64.972,-508.235 64.972,-508.235 58.972,-508.235 52.972,-502.235 52.972,-496.235 52.972,-496.235 52.972,-427.235 52.972,-427.235 52.972,-421.235 58.972,-415.235 64.972,-415.235"/>
<text text-anchor="middle" x="104.972" y="-493.035" font-family="Times,serif" font-size="14.00">ErrorController</text>
<polyline fill="none" stroke="black" points="52.972,-485.235 156.972,-485.235 "/>
<text text-anchor="start" x="60.972" y="-470.035" font-family="Times,serif" font-size="14.00">handle404</text>
<polyline fill="none" stroke="black" points="52.972,-462.235 156.972,-462.235 "/>
<polyline fill="none" stroke="black" points="52.972,-438.235 156.972,-438.235 "/>
<text text-anchor="start" x="60.972" y="-423.035" font-family="Times,serif" font-size="14.00">_layout</text>
</g>
<!-- ApplicationController&#45;&gt;ErrorController -->
<g id="edge3" class="edge"><title>ApplicationController&#45;&gt;ErrorController</title>
<path fill="none" stroke="black" d="M262.694,-359.787C226.973,-382.876 187.71,-408.255 157.295,-427.915"/>
</g>
<!-- FeedsController -->
<g id="node6" class="node"><title>FeedsController</title>
<path fill="none" stroke="black" d="M542.775,-435.741C542.775,-435.741 728.775,-435.741 728.775,-435.741 734.775,-435.741 740.775,-441.741 740.775,-447.741 740.775,-447.741 740.775,-576.741 740.775,-576.741 740.775,-582.741 734.775,-588.741 728.775,-588.741 728.775,-588.741 542.775,-588.741 542.775,-588.741 536.775,-588.741 530.775,-582.741 530.775,-576.741 530.775,-576.741 530.775,-447.741 530.775,-447.741 530.775,-441.741 536.775,-435.741 542.775,-435.741"/>
<text text-anchor="middle" x="635.775" y="-573.541" font-family="Times,serif" font-size="14.00">FeedsController</text>
<polyline fill="none" stroke="black" points="530.775,-565.741 740.775,-565.741 "/>
<text text-anchor="start" x="538.775" y="-550.541" font-family="Times,serif" font-size="14.00">_callback_before_177</text>
<text text-anchor="start" x="538.775" y="-535.541" font-family="Times,serif" font-size="14.00">_one_time_conditions_valid_176?</text>
<text text-anchor="start" x="538.775" y="-520.541" font-family="Times,serif" font-size="14.00">_one_time_conditions_valid_178?</text>
<text text-anchor="start" x="538.775" y="-505.541" font-family="Times,serif" font-size="14.00">check_as_favourite</text>
<text text-anchor="start" x="538.775" y="-490.541" font-family="Times,serif" font-size="14.00">show</text>
<polyline fill="none" stroke="black" points="530.775,-482.741 740.775,-482.741 "/>
<polyline fill="none" stroke="black" points="530.775,-458.741 740.775,-458.741 "/>
<text text-anchor="start" x="538.775" y="-443.541" font-family="Times,serif" font-size="14.00">_layout</text>
</g>
<!-- ApplicationController&#45;&gt;FeedsController -->
<g id="edge4" class="edge"><title>ApplicationController&#45;&gt;FeedsController</title>
<path fill="none" stroke="black" d="M437.963,-359.816C468.656,-383.467 504.062,-410.75 536.362,-435.638"/>
</g>
<!-- HomeController -->
<g id="node7" class="node"><title>HomeController</title>
<path fill="none" stroke="black" d="M320.11,-470.861C320.11,-470.861 404.11,-470.861 404.11,-470.861 410.11,-470.861 416.11,-476.861 416.11,-482.861 416.11,-482.861 416.11,-551.861 416.11,-551.861 416.11,-557.861 410.11,-563.861 404.11,-563.861 404.11,-563.861 320.11,-563.861 320.11,-563.861 314.11,-563.861 308.11,-557.861 308.11,-551.861 308.11,-551.861 308.11,-482.861 308.11,-482.861 308.11,-476.861 314.11,-470.861 320.11,-470.861"/>
<text text-anchor="middle" x="362.11" y="-548.661" font-family="Times,serif" font-size="14.00">HomeController</text>
<polyline fill="none" stroke="black" points="308.11,-540.861 416.11,-540.861 "/>
<text text-anchor="start" x="316.11" y="-525.661" font-family="Times,serif" font-size="14.00">index</text>
<polyline fill="none" stroke="black" points="308.11,-517.861 416.11,-517.861 "/>
<polyline fill="none" stroke="black" points="308.11,-493.861 416.11,-493.861 "/>
<text text-anchor="start" x="316.11" y="-478.661" font-family="Times,serif" font-size="14.00">_layout</text>
</g>
<!-- ApplicationController&#45;&gt;HomeController -->
<g id="edge5" class="edge"><title>ApplicationController&#45;&gt;HomeController</title>
<path fill="none" stroke="black" d="M359.147,-359.825C359.809,-395.023 360.626,-438.442 361.234,-470.778"/>
</g>
<!-- ServicesController -->
<g id="node9" class="node"><title>ServicesController</title>
<path fill="none" stroke="black" d="M12,-50.6923C12,-50.6923 198,-50.6923 198,-50.6923 204,-50.6923 210,-56.6923 210,-62.6923 210,-62.6923 210,-206.692 210,-206.692 210,-212.692 204,-218.692 198,-218.692 198,-218.692 12,-218.692 12,-218.692 6,-218.692 0,-212.692 0,-206.692 0,-206.692 0,-62.6923 0,-62.6923 0,-56.6923 6,-50.6923 12,-50.6923"/>
<text text-anchor="middle" x="105" y="-203.492" font-family="Times,serif" font-size="14.00">ServicesController</text>
<polyline fill="none" stroke="black" points="0,-195.692 210,-195.692 "/>
<text text-anchor="start" x="8" y="-180.492" font-family="Times,serif" font-size="14.00">_one_time_conditions_valid_192?</text>
<text text-anchor="start" x="8" y="-165.492" font-family="Times,serif" font-size="14.00">_one_time_conditions_valid_196?</text>
<text text-anchor="start" x="8" y="-150.492" font-family="Times,serif" font-size="14.00">create</text>
<text text-anchor="start" x="8" y="-135.492" font-family="Times,serif" font-size="14.00">destroy</text>
<text text-anchor="start" x="8" y="-120.492" font-family="Times,serif" font-size="14.00">index</text>
<text text-anchor="start" x="8" y="-105.492" font-family="Times,serif" font-size="14.00">signout</text>
<polyline fill="none" stroke="black" points="0,-97.6923 210,-97.6923 "/>
<polyline fill="none" stroke="black" points="0,-73.6923 210,-73.6923 "/>
<text text-anchor="start" x="8" y="-58.4923" font-family="Times,serif" font-size="14.00">_layout</text>
</g>
<!-- ApplicationController&#45;&gt;ServicesController -->
<g id="edge6" class="edge"><title>ApplicationController&#45;&gt;ServicesController</title>
<path fill="none" stroke="black" d="M262.705,-236.612C245.616,-225.568 227.718,-214.001 210.365,-202.786"/>
</g>
<!-- UsersController -->
<g id="node10" class="node"><title>UsersController</title>
<path fill="none" stroke="black" d="M542.853,-0.5C542.853,-0.5 728.853,-0.5 728.853,-0.5 734.853,-0.5 740.853,-6.5 740.853,-12.5 740.853,-12.5 740.853,-156.5 740.853,-156.5 740.853,-162.5 734.853,-168.5 728.853,-168.5 728.853,-168.5 542.853,-168.5 542.853,-168.5 536.853,-168.5 530.853,-162.5 530.853,-156.5 530.853,-156.5 530.853,-12.5 530.853,-12.5 530.853,-6.5 536.853,-0.5 542.853,-0.5"/>
<text text-anchor="middle" x="635.853" y="-153.3" font-family="Times,serif" font-size="14.00">UsersController</text>
<polyline fill="none" stroke="black" points="530.853,-145.5 740.853,-145.5 "/>
<text text-anchor="start" x="538.853" y="-130.3" font-family="Times,serif" font-size="14.00">_one_time_conditions_valid_200?</text>
<text text-anchor="start" x="538.853" y="-115.3" font-family="Times,serif" font-size="14.00">edit</text>
<text text-anchor="start" x="538.853" y="-100.3" font-family="Times,serif" font-size="14.00">index</text>
<text text-anchor="start" x="538.853" y="-85.3" font-family="Times,serif" font-size="14.00">new</text>
<text text-anchor="start" x="538.853" y="-70.3" font-family="Times,serif" font-size="14.00">show</text>
<text text-anchor="start" x="538.853" y="-55.3" font-family="Times,serif" font-size="14.00">update</text>
<polyline fill="none" stroke="black" points="530.853,-47.5 740.853,-47.5 "/>
<polyline fill="none" stroke="black" points="530.853,-23.5 740.853,-23.5 "/>
<text text-anchor="start" x="538.853" y="-8.3" font-family="Times,serif" font-size="14.00">_layout</text>
</g>
<!-- ApplicationController&#45;&gt;UsersController -->
<g id="edge7" class="edge"><title>ApplicationController&#45;&gt;UsersController</title>
<path fill="none" stroke="black" d="M437.985,-236.669C466.924,-214.414 500.05,-188.938 530.815,-165.279"/>
</g>
<!-- RegistrationsController -->
<g id="node8" class="node"><title>RegistrationsController</title>
<path fill="none" stroke="black" d="M100,-616.5C100,-616.5 224,-616.5 224,-616.5 230,-616.5 236,-622.5 236,-628.5 236,-628.5 236,-712.5 236,-712.5 236,-718.5 230,-724.5 224,-724.5 224,-724.5 100,-724.5 100,-724.5 94,-724.5 88,-718.5 88,-712.5 88,-712.5 88,-628.5 88,-628.5 88,-622.5 94,-616.5 100,-616.5"/>
<text text-anchor="middle" x="162" y="-709.3" font-family="Times,serif" font-size="14.00">RegistrationsController</text>
<polyline fill="none" stroke="black" points="88,-701.5 236,-701.5 "/>
<text text-anchor="start" x="96" y="-686.3" font-family="Times,serif" font-size="14.00">create</text>
<text text-anchor="start" x="96" y="-671.3" font-family="Times,serif" font-size="14.00">update</text>
<polyline fill="none" stroke="black" points="88,-663.5 236,-663.5 "/>
<polyline fill="none" stroke="black" points="88,-639.5 236,-639.5 "/>
<text text-anchor="start" x="96" y="-624.3" font-family="Times,serif" font-size="14.00">_layout</text>
</g>
</g>
</svg>
