<?xml version="1.0" encoding="UTF-8" standalone="no"?>
<!DOCTYPE svg PUBLIC "-//W3C//DTD SVG 1.1//EN"
 "http://www.w3.org/Graphics/SVG/1.1/DTD/svg11.dtd">
<!-- Generated by graphviz version 2.30.1 (20130221.2233)
 -->
<!-- Title: models_diagram Pages: 1 -->
<svg width="488pt" height="230pt"
 viewBox="0.00 0.00 488.00 230.00" xmlns="http://www.w3.org/2000/svg" xmlns:xlink="http://www.w3.org/1999/xlink">
<g id="graph0" class="graph" transform="scale(1 1) rotate(0) translate(4 226)">
<title>models_diagram</title>
<polygon fill="white" stroke="white" points="-4,5 -4,-226 485,-226 485,5 -4,5"/>
<!-- _diagram_info -->
<g id="node1" class="node"><title>_diagram_info</title>
<text text-anchor="start" x="8" y="-207.6" font-family="Times,serif" font-size="13.00">Models diagram</text>
<text text-anchor="start" x="8" y="-193.6" font-family="Times,serif" font-size="13.00">Date: Apr 16 2013 &#45; 01:26</text>
<text text-anchor="start" x="8" y="-179.6" font-family="Times,serif" font-size="13.00">Migration version: 20120904232419</text>
<text text-anchor="start" x="8" y="-165.6" font-family="Times,serif" font-size="13.00">Generated by RailRoady 1.1.0</text>
<text text-anchor="start" x="8" y="-151.6" font-family="Times,serif" font-size="13.00">http://railroady.prestonlee.com</text>
</g>
<!-- Ability -->
<g id="node2" class="node"><title>Ability</title>
<polygon fill="none" stroke="black" points="282,-201 226,-201 226,-165 282,-165 282,-201"/>
<text text-anchor="middle" x="254" y="-179.3" font-family="Times,serif" font-size="14.00">Ability</text>
</g>
<!-- Channel -->
<g id="node3" class="node"><title>Channel</title>
<ellipse fill="none" stroke="black" cx="341" cy="-183" rx="40.4202" ry="18"/>
<text text-anchor="middle" x="341" y="-179.3" font-family="Times,serif" font-size="14.00">Channel</text>
</g>
<!-- Feed -->
<g id="node5" class="node"><title>Feed</title>
<ellipse fill="none" stroke="black" cx="341" cy="-90" rx="28.3955" ry="18"/>
<text text-anchor="middle" x="341" y="-86.3" font-family="Times,serif" font-size="14.00">Feed</text>
</g>
<!-- Channel&#45;&gt;Feed -->
<g id="edge1" class="edge"><title>Channel&#45;&gt;Feed</title>
<path fill="none" stroke="#a0504f" d="M341,-156.729C341,-144.725 341,-130.362 341,-118.129"/>
<ellipse fill="none" stroke="#a0504f" cx="341" cy="-160.884" rx="4" ry="4"/>
<polygon fill="#a0504f" stroke="#a0504f" points="341,-118.04 345.5,-108.04 341,-113.04 341,-108.04 341,-108.04 341,-108.04 341,-113.04 336.5,-108.04 341,-118.04 341,-118.04"/>
</g>
<!-- User -->
<g id="node8" class="node"><title>User</title>
<ellipse fill="none" stroke="black" cx="422" cy="-90" rx="27.4223" ry="18"/>
<text text-anchor="middle" x="422" y="-86.3" font-family="Times,serif" font-size="14.00">User</text>
</g>
<!-- Channel&#45;&gt;User -->
<g id="edge2" class="edge"><title>Channel&#45;&gt;User</title>
<path fill="none" stroke="#5f273c" d="M362.304,-158.066C374.605,-144.247 389.979,-126.974 402.045,-113.419"/>
<polygon fill="#5f273c" stroke="#5f273c" points="362.13,-158.261 352.12,-162.739 358.806,-161.996 355.481,-165.731 355.481,-165.731 355.481,-165.731 358.806,-161.996 358.842,-168.723 362.13,-158.261 362.13,-158.261"/>
<polygon fill="#5f273c" stroke="#5f273c" points="402.069,-113.391 412.079,-108.914 405.394,-109.657 408.718,-105.922 408.718,-105.922 408.718,-105.922 405.394,-109.657 405.357,-102.93 402.069,-113.391 402.069,-113.391"/>
</g>
<!-- Comment -->
<g id="node4" class="node"><title>Comment</title>
<ellipse fill="none" stroke="black" cx="341" cy="-18" rx="46.1964" ry="18"/>
<text text-anchor="middle" x="341" y="-14.3" font-family="Times,serif" font-size="14.00">Comment</text>
</g>
<!-- Feed&#45;&gt;Comment -->
<g id="edge3" class="edge"><title>Feed&#45;&gt;Comment</title>
<path fill="none" stroke="#b386b4" d="M341,-63.6398C341,-58.0629 341,-52.1319 341,-46.4761"/>
<ellipse fill="none" stroke="#b386b4" cx="341" cy="-67.6966" rx="4" ry="4"/>
<polygon fill="#b386b4" stroke="#b386b4" points="341,-46.1043 345.5,-36.1043 341,-41.1043 341,-36.1043 341,-36.1043 341,-36.1043 341,-41.1043 336.5,-36.1044 341,-46.1043 341,-46.1043"/>
</g>
<!-- Role -->
<g id="node6" class="node"><title>Role</title>
<ellipse fill="none" stroke="black" cx="428" cy="-183" rx="27.4223" ry="18"/>
<text text-anchor="middle" x="428" y="-179.3" font-family="Times,serif" font-size="14.00">Role</text>
</g>
<!-- Role&#45;&gt;User -->
<g id="edge4" class="edge"><title>Role&#45;&gt;User</title>
<path fill="none" stroke="#a017e9" d="M426.19,-154.549C425.434,-143.083 424.558,-129.792 423.803,-118.339"/>
<polygon fill="#a017e9" stroke="#a017e9" points="426.213,-154.905 422.381,-165.18 426.542,-159.894 426.871,-164.884 426.871,-164.884 426.871,-164.884 426.542,-159.894 431.362,-164.587 426.213,-154.905 426.213,-154.905"/>
<polygon fill="#a017e9" stroke="#a017e9" points="423.781,-118.018 427.614,-107.744 423.452,-113.029 423.123,-108.04 423.123,-108.04 423.123,-108.04 423.452,-113.029 418.633,-108.336 423.781,-118.018 423.781,-118.018"/>
</g>
<!-- Service -->
<g id="node7" class="node"><title>Service</title>
<ellipse fill="none" stroke="black" cx="443" cy="-18" rx="37.5442" ry="18"/>
<text text-anchor="middle" x="443" y="-14.3" font-family="Times,serif" font-size="14.00">Service</text>
</g>
<!-- User&#45;&gt;Service -->
<g id="edge5" class="edge"><title>User&#45;&gt;Service</title>
<path fill="none" stroke="#2cb11e" d="M429.42,-64.2675C431.198,-58.34 433.106,-51.9814 434.912,-45.9587"/>
<ellipse fill="none" stroke="#2cb11e" cx="428.233" cy="-68.2236" rx="4.00001" ry="4.00001"/>
<polygon fill="#2cb11e" stroke="#2cb11e" points="434.944,-45.8536 442.128,-37.5684 436.381,-41.0644 437.817,-36.2753 437.817,-36.2753 437.817,-36.2753 436.381,-41.0644 433.507,-34.9822 434.944,-45.8536 434.944,-45.8536"/>
</g>
<!-- User&#45;&gt;Comment -->
<g id="edge6" class="edge"><title>User&#45;&gt;Comment</title>
<path fill="none" stroke="#230f8d" d="M399.655,-69.6899C389.519,-60.9296 377.468,-50.5157 366.934,-41.4124"/>
<ellipse fill="none" stroke="#230f8d" cx="402.971" cy="-72.5548" rx="4.00002" ry="4.00002"/>
<polygon fill="#230f8d" stroke="#230f8d" points="366.798,-41.2944 362.174,-31.3509 363.015,-38.025 359.232,-34.7557 359.232,-34.7557 359.232,-34.7557 363.015,-38.025 356.289,-38.1605 366.798,-41.2944 366.798,-41.2944"/>
</g>
</g>
</svg>
