<?xml version="1.0" encoding="UTF-8" standalone="no"?>
<!DOCTYPE svg PUBLIC "-//W3C//DTD SVG 1.1//EN"
 "http://www.w3.org/Graphics/SVG/1.1/DTD/svg11.dtd">
<!-- Generated by graphviz version 2.30.1 (20130529.1541)
 -->
<!-- Title: models_diagram Pages: 1 -->
<svg width="792pt" height="866pt"
 viewBox="0.00 0.00 792.00 866.00" xmlns="http://www.w3.org/2000/svg" xmlns:xlink="http://www.w3.org/1999/xlink">
<g id="graph0" class="graph" transform="scale(1 1) rotate(0) translate(4 862)">
<title>models_diagram</title>
<polygon fill="white" stroke="white" points="-4,5 -4,-862 789,-862 789,5 -4,5"/>
<!-- _diagram_info -->
<g id="node1" class="node"><title>_diagram_info</title>
<text text-anchor="start" x="8" y="-791.6" font-family="Times,serif" font-size="13.00">Models diagram</text>
<text text-anchor="start" x="8" y="-777.6" font-family="Times,serif" font-size="13.00">Date: May 29 2013 &#45; 22:15</text>
<text text-anchor="start" x="8" y="-763.6" font-family="Times,serif" font-size="13.00">Migration version: 20130529153624</text>
<text text-anchor="start" x="8" y="-749.6" font-family="Times,serif" font-size="13.00">Generated by RailRoady 1.1.0</text>
<text text-anchor="start" x="8" y="-735.6" font-family="Times,serif" font-size="13.00">http://railroady.prestonlee.com</text>
</g>
<!-- Ability -->
<g id="node2" class="node"><title>Ability</title>
<polygon fill="none" stroke="black" points="226.5,-744 226.5,-790 283.5,-790 283.5,-744 226.5,-744"/>
<text text-anchor="middle" x="255" y="-774.8" font-family="Times,serif" font-size="14.00">Ability</text>
<polyline fill="none" stroke="black" points="226.5,-767 283.5,-767 "/>
<text text-anchor="middle" x="255" y="-751.8" font-family="Times,serif" font-size="14.00"> </text>
</g>
<!-- Channel -->
<g id="node3" class="node"><title>Channel</title>
<path fill="none" stroke="black" d="M314,-676.5C314,-676.5 474,-676.5 474,-676.5 480,-676.5 486,-682.5 486,-688.5 486,-688.5 486,-845.5 486,-845.5 486,-851.5 480,-857.5 474,-857.5 474,-857.5 314,-857.5 314,-857.5 308,-857.5 302,-851.5 302,-845.5 302,-845.5 302,-688.5 302,-688.5 302,-682.5 308,-676.5 314,-676.5"/>
<text text-anchor="middle" x="394" y="-842.3" font-family="Times,serif" font-size="14.00">Channel</text>
<polyline fill="none" stroke="black" points="302,-834.5 486,-834.5 "/>
<text text-anchor="start" x="310" y="-819.3" font-family="Times,serif" font-size="14.00">id :integer</text>
<text text-anchor="start" x="310" y="-804.3" font-family="Times,serif" font-size="14.00">name :string</text>
<text text-anchor="start" x="310" y="-789.3" font-family="Times,serif" font-size="14.00">summary :text</text>
<text text-anchor="start" x="310" y="-774.3" font-family="Times,serif" font-size="14.00">url :string</text>
<text text-anchor="start" x="310" y="-759.3" font-family="Times,serif" font-size="14.00">favourite :boolean</text>
<text text-anchor="start" x="310" y="-744.3" font-family="Times,serif" font-size="14.00">created_at :datetime</text>
<text text-anchor="start" x="310" y="-729.3" font-family="Times,serif" font-size="14.00">updated_at :datetime</text>
<text text-anchor="start" x="310" y="-714.3" font-family="Times,serif" font-size="14.00">limit :integer</text>
<text text-anchor="start" x="310" y="-699.3" font-family="Times,serif" font-size="14.00">user_id :integer</text>
<text text-anchor="start" x="310" y="-684.3" font-family="Times,serif" font-size="14.00">channel_category_id :integer</text>
</g>
<!-- Feed -->
<g id="node5" class="node"><title>Feed</title>
<path fill="none" stroke="black" d="M324,-301C324,-301 446,-301 446,-301 452,-301 458,-307 458,-313 458,-313 458,-515 458,-515 458,-521 452,-527 446,-527 446,-527 324,-527 324,-527 318,-527 312,-521 312,-515 312,-515 312,-313 312,-313 312,-307 318,-301 324,-301"/>
<text text-anchor="middle" x="385" y="-511.8" font-family="Times,serif" font-size="14.00">Feed</text>
<polyline fill="none" stroke="black" points="312,-504 458,-504 "/>
<text text-anchor="start" x="320" y="-488.8" font-family="Times,serif" font-size="14.00">id :integer</text>
<text text-anchor="start" x="320" y="-473.8" font-family="Times,serif" font-size="14.00">name :string</text>
<text text-anchor="start" x="320" y="-458.8" font-family="Times,serif" font-size="14.00">summary :text</text>
<text text-anchor="start" x="320" y="-443.8" font-family="Times,serif" font-size="14.00">url :string</text>
<text text-anchor="start" x="320" y="-428.8" font-family="Times,serif" font-size="14.00">published_at :datetime</text>
<text text-anchor="start" x="320" y="-413.8" font-family="Times,serif" font-size="14.00">guid :string</text>
<text text-anchor="start" x="320" y="-398.8" font-family="Times,serif" font-size="14.00">favourite :boolean</text>
<text text-anchor="start" x="320" y="-383.8" font-family="Times,serif" font-size="14.00">channel_id :integer</text>
<text text-anchor="start" x="320" y="-368.8" font-family="Times,serif" font-size="14.00">created_at :datetime</text>
<text text-anchor="start" x="320" y="-353.8" font-family="Times,serif" font-size="14.00">updated_at :datetime</text>
<text text-anchor="start" x="320" y="-338.8" font-family="Times,serif" font-size="14.00">title :string</text>
<text text-anchor="start" x="320" y="-323.8" font-family="Times,serif" font-size="14.00">delta :boolean</text>
<text text-anchor="start" x="320" y="-308.8" font-family="Times,serif" font-size="14.00">likes :integer</text>
</g>
<!-- Channel&#45;&gt;Feed -->
<g id="edge1" class="edge"><title>Channel&#45;&gt;Feed</title>
<path fill="none" stroke="#889c69" d="M391.487,-667.984C390.447,-627.438 389.23,-579.989 388.134,-537.208"/>
<ellipse fill="none" stroke="#889c69" cx="391.591" cy="-672.066" rx="4" ry="4"/>
<polygon fill="#889c69" stroke="#889c69" points="388.129,-537.011 392.371,-526.899 388,-532.013 387.872,-527.015 387.872,-527.015 387.872,-527.015 388,-532.013 383.374,-527.13 388.129,-537.011 388.129,-537.011"/>
</g>
<!-- User -->
<g id="node8" class="node"><title>User</title>
<path fill="none" stroke="black" d="M488.5,-188.5C488.5,-188.5 673.5,-188.5 673.5,-188.5 679.5,-188.5 685.5,-194.5 685.5,-200.5 685.5,-200.5 685.5,-627.5 685.5,-627.5 685.5,-633.5 679.5,-639.5 673.5,-639.5 673.5,-639.5 488.5,-639.5 488.5,-639.5 482.5,-639.5 476.5,-633.5 476.5,-627.5 476.5,-627.5 476.5,-200.5 476.5,-200.5 476.5,-194.5 482.5,-188.5 488.5,-188.5"/>
<text text-anchor="middle" x="581" y="-624.3" font-family="Times,serif" font-size="14.00">User</text>
<polyline fill="none" stroke="black" points="476.5,-616.5 685.5,-616.5 "/>
<text text-anchor="start" x="484.5" y="-601.3" font-family="Times,serif" font-size="14.00">id :integer</text>
<text text-anchor="start" x="484.5" y="-586.3" font-family="Times,serif" font-size="14.00">email :string</text>
<text text-anchor="start" x="484.5" y="-571.3" font-family="Times,serif" font-size="14.00">encrypted_password :string</text>
<text text-anchor="start" x="484.5" y="-556.3" font-family="Times,serif" font-size="14.00">reset_password_token :string</text>
<text text-anchor="start" x="484.5" y="-541.3" font-family="Times,serif" font-size="14.00">reset_password_sent_at :datetime</text>
<text text-anchor="start" x="484.5" y="-526.3" font-family="Times,serif" font-size="14.00">remember_created_at :datetime</text>
<text text-anchor="start" x="484.5" y="-511.3" font-family="Times,serif" font-size="14.00">sign_in_count :integer</text>
<text text-anchor="start" x="484.5" y="-496.3" font-family="Times,serif" font-size="14.00">current_sign_in_at :datetime</text>
<text text-anchor="start" x="484.5" y="-481.3" font-family="Times,serif" font-size="14.00">last_sign_in_at :datetime</text>
<text text-anchor="start" x="484.5" y="-466.3" font-family="Times,serif" font-size="14.00">current_sign_in_ip :string</text>
<text text-anchor="start" x="484.5" y="-451.3" font-family="Times,serif" font-size="14.00">last_sign_in_ip :string</text>
<text text-anchor="start" x="484.5" y="-436.3" font-family="Times,serif" font-size="14.00">confirmation_token :string</text>
<text text-anchor="start" x="484.5" y="-421.3" font-family="Times,serif" font-size="14.00">confirmed_at :datetime</text>
<text text-anchor="start" x="484.5" y="-406.3" font-family="Times,serif" font-size="14.00">confirmation_sent_at :datetime</text>
<text text-anchor="start" x="484.5" y="-391.3" font-family="Times,serif" font-size="14.00">unconfirmed_email :string</text>
<text text-anchor="start" x="484.5" y="-376.3" font-family="Times,serif" font-size="14.00">created_at :datetime</text>
<text text-anchor="start" x="484.5" y="-361.3" font-family="Times,serif" font-size="14.00">updated_at :datetime</text>
<text text-anchor="start" x="484.5" y="-346.3" font-family="Times,serif" font-size="14.00">first_name :string</text>
<text text-anchor="start" x="484.5" y="-331.3" font-family="Times,serif" font-size="14.00">last_name :string</text>
<text text-anchor="start" x="484.5" y="-316.3" font-family="Times,serif" font-size="14.00">login :string</text>
<text text-anchor="start" x="484.5" y="-301.3" font-family="Times,serif" font-size="14.00">avatar_file_name :string</text>
<text text-anchor="start" x="484.5" y="-286.3" font-family="Times,serif" font-size="14.00">avatar_content_type :string</text>
<text text-anchor="start" x="484.5" y="-271.3" font-family="Times,serif" font-size="14.00">avatar_file_size :integer</text>
<text text-anchor="start" x="484.5" y="-256.3" font-family="Times,serif" font-size="14.00">avatar_updated_at :datetime</text>
<text text-anchor="start" x="484.5" y="-241.3" font-family="Times,serif" font-size="14.00">profile :string</text>
<text text-anchor="start" x="484.5" y="-226.3" font-family="Times,serif" font-size="14.00">limit :integer</text>
<text text-anchor="start" x="484.5" y="-211.3" font-family="Times,serif" font-size="14.00">roles_mask :integer</text>
<text text-anchor="start" x="484.5" y="-196.3" font-family="Times,serif" font-size="14.00">role :string</text>
</g>
<!-- Channel&#45;&gt;User -->
<g id="edge2" class="edge"><title>Channel&#45;&gt;User</title>
<path fill="none" stroke="#234efb" d="M451.848,-667.364C457.039,-658.151 462.158,-648.925 467,-640 468.566,-637.113 470.138,-634.202 471.715,-631.271"/>
<polygon fill="#234efb" stroke="#234efb" points="451.783,-667.481 442.941,-673.966 449.32,-671.832 446.857,-676.183 446.857,-676.183 446.857,-676.183 449.32,-671.832 450.773,-678.4 451.783,-667.481 451.783,-667.481"/>
<polygon fill="#234efb" stroke="#234efb" points="471.733,-631.237 480.422,-624.547 474.094,-626.83 476.456,-622.422 476.456,-622.422 476.456,-622.422 474.094,-626.83 472.489,-620.297 471.733,-631.237 471.733,-631.237"/>
</g>
<!-- Comment -->
<g id="node4" class="node"><title>Comment</title>
<path fill="none" stroke="black" d="M350.5,-15.5C350.5,-15.5 461.5,-15.5 461.5,-15.5 467.5,-15.5 473.5,-21.5 473.5,-27.5 473.5,-27.5 473.5,-124.5 473.5,-124.5 473.5,-130.5 467.5,-136.5 461.5,-136.5 461.5,-136.5 350.5,-136.5 350.5,-136.5 344.5,-136.5 338.5,-130.5 338.5,-124.5 338.5,-124.5 338.5,-27.5 338.5,-27.5 338.5,-21.5 344.5,-15.5 350.5,-15.5"/>
<text text-anchor="middle" x="406" y="-121.3" font-family="Times,serif" font-size="14.00">Comment</text>
<polyline fill="none" stroke="black" points="338.5,-113.5 473.5,-113.5 "/>
<text text-anchor="start" x="346.5" y="-98.3" font-family="Times,serif" font-size="14.00">id :integer</text>
<text text-anchor="start" x="346.5" y="-83.3" font-family="Times,serif" font-size="14.00">user_id :integer</text>
<text text-anchor="start" x="346.5" y="-68.3" font-family="Times,serif" font-size="14.00">body :text</text>
<text text-anchor="start" x="346.5" y="-53.3" font-family="Times,serif" font-size="14.00">feed_id :integer</text>
<text text-anchor="start" x="346.5" y="-38.3" font-family="Times,serif" font-size="14.00">created_at :datetime</text>
<text text-anchor="start" x="346.5" y="-23.3" font-family="Times,serif" font-size="14.00">updated_at :datetime</text>
</g>
<!-- Feed&#45;&gt;Comment -->
<g id="edge3" class="edge"><title>Feed&#45;&gt;Comment</title>
<path fill="none" stroke="#13d88e" d="M392.527,-292.569C395.578,-243.75 398.994,-189.092 401.623,-147.028"/>
<ellipse fill="none" stroke="#13d88e" cx="392.271" cy="-296.658" rx="4" ry="4"/>
<polygon fill="#13d88e" stroke="#13d88e" points="401.633,-146.871 406.748,-137.171 401.945,-141.881 402.257,-136.891 402.257,-136.891 402.257,-136.891 401.945,-141.881 397.766,-136.61 401.633,-146.871 401.633,-146.871"/>
</g>
<!-- Role -->
<g id="node6" class="node"><title>Role</title>
<path fill="none" stroke="black" d="M524,-706.5C524,-706.5 638,-706.5 638,-706.5 644,-706.5 650,-712.5 650,-718.5 650,-718.5 650,-815.5 650,-815.5 650,-821.5 644,-827.5 638,-827.5 638,-827.5 524,-827.5 524,-827.5 518,-827.5 512,-821.5 512,-815.5 512,-815.5 512,-718.5 512,-718.5 512,-712.5 518,-706.5 524,-706.5"/>
<text text-anchor="middle" x="581" y="-812.3" font-family="Times,serif" font-size="14.00">Role</text>
<polyline fill="none" stroke="black" points="512,-804.5 650,-804.5 "/>
<text text-anchor="start" x="520" y="-789.3" font-family="Times,serif" font-size="14.00">id :integer</text>
<text text-anchor="start" x="520" y="-774.3" font-family="Times,serif" font-size="14.00">name :string</text>
<text text-anchor="start" x="520" y="-759.3" font-family="Times,serif" font-size="14.00">resource_id :integer</text>
<text text-anchor="start" x="520" y="-744.3" font-family="Times,serif" font-size="14.00">resource_type :string</text>
<text text-anchor="start" x="520" y="-729.3" font-family="Times,serif" font-size="14.00">created_at :datetime</text>
<text text-anchor="start" x="520" y="-714.3" font-family="Times,serif" font-size="14.00">updated_at :datetime</text>
</g>
<!-- Role&#45;&gt;User -->
<g id="edge4" class="edge"><title>Role&#45;&gt;User</title>
<path fill="none" stroke="#afb6f5" d="M581,-696.128C581,-682.012 581,-666.444 581,-650.094"/>
<polygon fill="#afb6f5" stroke="#afb6f5" points="581,-696.458 576.5,-706.458 581,-701.458 581,-706.458 581,-706.458 581,-706.458 581,-701.458 585.5,-706.458 581,-696.458 581,-696.458"/>
<polygon fill="#afb6f5" stroke="#afb6f5" points="581,-649.818 585.5,-639.817 581,-644.818 581,-639.818 581,-639.818 581,-639.818 581,-644.818 576.5,-639.818 581,-649.818 581,-649.818"/>
</g>
<!-- Service -->
<g id="node7" class="node"><title>Service</title>
<path fill="none" stroke="black" d="M514.5,-0.5C514.5,-0.5 625.5,-0.5 625.5,-0.5 631.5,-0.5 637.5,-6.5 637.5,-12.5 637.5,-12.5 637.5,-139.5 637.5,-139.5 637.5,-145.5 631.5,-151.5 625.5,-151.5 625.5,-151.5 514.5,-151.5 514.5,-151.5 508.5,-151.5 502.5,-145.5 502.5,-139.5 502.5,-139.5 502.5,-12.5 502.5,-12.5 502.5,-6.5 508.5,-0.5 514.5,-0.5"/>
<text text-anchor="middle" x="570" y="-136.3" font-family="Times,serif" font-size="14.00">Service</text>
<polyline fill="none" stroke="black" points="502.5,-128.5 637.5,-128.5 "/>
<text text-anchor="start" x="510.5" y="-113.3" font-family="Times,serif" font-size="14.00">id :integer</text>
<text text-anchor="start" x="510.5" y="-98.3" font-family="Times,serif" font-size="14.00">user_id :integer</text>
<text text-anchor="start" x="510.5" y="-83.3" font-family="Times,serif" font-size="14.00">provider :string</text>
<text text-anchor="start" x="510.5" y="-68.3" font-family="Times,serif" font-size="14.00">uid :string</text>
<text text-anchor="start" x="510.5" y="-53.3" font-family="Times,serif" font-size="14.00">uname :string</text>
<text text-anchor="start" x="510.5" y="-38.3" font-family="Times,serif" font-size="14.00">uemail :string</text>
<text text-anchor="start" x="510.5" y="-23.3" font-family="Times,serif" font-size="14.00">created_at :datetime</text>
<text text-anchor="start" x="510.5" y="-8.3" font-family="Times,serif" font-size="14.00">updated_at :datetime</text>
</g>
<!-- User&#45;&gt;Service -->
<g id="edge5" class="edge"><title>User&#45;&gt;Service</title>
<path fill="none" stroke="#dd0091" d="M573.384,-180.364C573.18,-174.145 572.981,-168.066 572.788,-162.168"/>
<ellipse fill="none" stroke="#dd0091" cx="573.517" cy="-184.419" rx="4" ry="4"/>
<polygon fill="#dd0091" stroke="#dd0091" points="572.775,-161.752 576.945,-151.61 572.611,-156.755 572.447,-151.758 572.447,-151.758 572.447,-151.758 572.611,-156.755 567.95,-151.905 572.775,-161.752 572.775,-161.752"/>
</g>
<!-- User&#45;&gt;Comment -->
<g id="edge6" class="edge"><title>User&#45;&gt;Comment</title>
<path fill="none" stroke="#3c9de3" d="M472.585,-198.613C470.714,-195.046 468.851,-191.506 467,-188 459.758,-174.282 451.875,-159.695 444.254,-145.76"/>
<ellipse fill="none" stroke="#3c9de3" cx="474.582" cy="-202.426" rx="4.00002" ry="4.00002"/>
<polygon fill="#3c9de3" stroke="#3c9de3" points="444.101,-145.481 443.239,-134.549 441.697,-141.096 439.293,-136.712 439.293,-136.712 439.293,-136.712 441.697,-141.096 435.348,-138.876 444.101,-145.481 444.101,-145.481"/>
</g>
<!-- FavouriteFeed -->
<g id="node9" class="node"><title>FavouriteFeed</title>
<ellipse fill="none" stroke="black" cx="720" cy="-76" rx="64.0172" ry="18"/>
<text text-anchor="middle" x="720" y="-72.3" font-family="Times,serif" font-size="14.00">FavouriteFeed</text>
</g>
<!-- User&#45;&gt;FavouriteFeed -->
<g id="edge7" class="edge"><title>User&#45;&gt;FavouriteFeed</title>
<path fill="none" stroke="#a64a66" d="M677.143,-180.596C689.882,-149.802 701.214,-122.411 709.021,-103.539"/>
<ellipse fill="none" stroke="#a64a66" cx="675.437" cy="-184.72" rx="4.00001" ry="4.00001"/>
<polygon fill="#a64a66" stroke="#a64a66" points="709.054,-103.46 717.035,-95.9399 710.965,-98.8399 712.876,-94.2196 712.876,-94.2196 712.876,-94.2196 710.965,-98.8399 708.718,-92.4994 709.054,-103.46 709.054,-103.46"/>
</g>
</g>
</svg>
