<?xml version="1.0" encoding="UTF-8" standalone="no"?>
<!DOCTYPE svg PUBLIC "-//W3C//DTD SVG 1.1//EN"
 "http://www.w3.org/Graphics/SVG/1.1/DTD/svg11.dtd">
<!-- Generated by graphviz version 2.30.1 (20130221.2233)
 -->
<!-- Title: models_diagram Pages: 1 -->
<svg width="684pt" height="866pt"
 viewBox="0.00 0.00 684.00 866.00" xmlns="http://www.w3.org/2000/svg" xmlns:xlink="http://www.w3.org/1999/xlink">
<g id="graph0" class="graph" transform="scale(1 1) rotate(0) translate(4 862)">
<title>models_diagram</title>
<polygon fill="white" stroke="white" points="-4,5 -4,-862 681,-862 681,5 -4,5"/>
<!-- _diagram_info -->
<g id="node1" class="node"><title>_diagram_info</title>
<text text-anchor="start" x="8" y="-791.6" font-family="Times,serif" font-size="13.00">Models diagram</text>
<text text-anchor="start" x="8" y="-777.6" font-family="Times,serif" font-size="13.00">Date: Apr 16 2013 &#45; 01:26</text>
<text text-anchor="start" x="8" y="-763.6" font-family="Times,serif" font-size="13.00">Migration version: 20120904232419</text>
<text text-anchor="start" x="8" y="-749.6" font-family="Times,serif" font-size="13.00">Generated by RailRoady 1.1.0</text>
<text text-anchor="start" x="8" y="-735.6" font-family="Times,serif" font-size="13.00">http://railroady.prestonlee.com</text>
</g>
<!-- Ability -->
<g id="node2" class="node"><title>Ability</title>
<polygon fill="none" stroke="black" points="226,-744 226,-790 282,-790 282,-744 226,-744"/>
<text text-anchor="middle" x="254" y="-774.8" font-family="Times,serif" font-size="14.00">Ability</text>
<polyline fill="none" stroke="black" points="226,-767 282,-767 "/>
<text text-anchor="middle" x="254" y="-751.8" font-family="Times,serif" font-size="14.00"> </text>
</g>
<!-- Channel -->
<g id="node3" class="node"><title>Channel</title>
<path fill="none" stroke="black" d="M312.5,-676.5C312.5,-676.5 467.5,-676.5 467.5,-676.5 473.5,-676.5 479.5,-682.5 479.5,-688.5 479.5,-688.5 479.5,-845.5 479.5,-845.5 479.5,-851.5 473.5,-857.5 467.5,-857.5 467.5,-857.5 312.5,-857.5 312.5,-857.5 306.5,-857.5 300.5,-851.5 300.5,-845.5 300.5,-845.5 300.5,-688.5 300.5,-688.5 300.5,-682.5 306.5,-676.5 312.5,-676.5"/>
<text text-anchor="middle" x="390" y="-842.3" font-family="Times,serif" font-size="14.00">Channel</text>
<polyline fill="none" stroke="black" points="300.5,-834.5 479.5,-834.5 "/>
<text text-anchor="start" x="308.5" y="-819.3" font-family="Times,serif" font-size="14.00">id :integer</text>
<text text-anchor="start" x="308.5" y="-804.3" font-family="Times,serif" font-size="14.00">name :string</text>
<text text-anchor="start" x="308.5" y="-789.3" font-family="Times,serif" font-size="14.00">summary :text</text>
<text text-anchor="start" x="308.5" y="-774.3" font-family="Times,serif" font-size="14.00">url :string</text>
<text text-anchor="start" x="308.5" y="-759.3" font-family="Times,serif" font-size="14.00">favourite :boolean</text>
<text text-anchor="start" x="308.5" y="-744.3" font-family="Times,serif" font-size="14.00">created_at :datetime</text>
<text text-anchor="start" x="308.5" y="-729.3" font-family="Times,serif" font-size="14.00">updated_at :datetime</text>
<text text-anchor="start" x="308.5" y="-714.3" font-family="Times,serif" font-size="14.00">limit :integer</text>
<text text-anchor="start" x="308.5" y="-699.3" font-family="Times,serif" font-size="14.00">user_id :integer</text>
<text text-anchor="start" x="308.5" y="-684.3" font-family="Times,serif" font-size="14.00">channel_category_id :integer</text>
</g>
<!-- Feed -->
<g id="node5" class="node"><title>Feed</title>
<path fill="none" stroke="black" d="M321,-308.5C321,-308.5 441,-308.5 441,-308.5 447,-308.5 453,-314.5 453,-320.5 453,-320.5 453,-507.5 453,-507.5 453,-513.5 447,-519.5 441,-519.5 441,-519.5 321,-519.5 321,-519.5 315,-519.5 309,-513.5 309,-507.5 309,-507.5 309,-320.5 309,-320.5 309,-314.5 315,-308.5 321,-308.5"/>
<text text-anchor="middle" x="381" y="-504.3" font-family="Times,serif" font-size="14.00">Feed</text>
<polyline fill="none" stroke="black" points="309,-496.5 453,-496.5 "/>
<text text-anchor="start" x="317" y="-481.3" font-family="Times,serif" font-size="14.00">id :integer</text>
<text text-anchor="start" x="317" y="-466.3" font-family="Times,serif" font-size="14.00">name :string</text>
<text text-anchor="start" x="317" y="-451.3" font-family="Times,serif" font-size="14.00">summary :text</text>
<text text-anchor="start" x="317" y="-436.3" font-family="Times,serif" font-size="14.00">url :string</text>
<text text-anchor="start" x="317" y="-421.3" font-family="Times,serif" font-size="14.00">published_at :datetime</text>
<text text-anchor="start" x="317" y="-406.3" font-family="Times,serif" font-size="14.00">guid :string</text>
<text text-anchor="start" x="317" y="-391.3" font-family="Times,serif" font-size="14.00">favourite :boolean</text>
<text text-anchor="start" x="317" y="-376.3" font-family="Times,serif" font-size="14.00">channel_id :integer</text>
<text text-anchor="start" x="317" y="-361.3" font-family="Times,serif" font-size="14.00">created_at :datetime</text>
<text text-anchor="start" x="317" y="-346.3" font-family="Times,serif" font-size="14.00">updated_at :datetime</text>
<text text-anchor="start" x="317" y="-331.3" font-family="Times,serif" font-size="14.00">title :string</text>
<text text-anchor="start" x="317" y="-316.3" font-family="Times,serif" font-size="14.00">delta :boolean</text>
</g>
<!-- Channel&#45;&gt;Feed -->
<g id="edge1" class="edge"><title>Channel&#45;&gt;Feed</title>
<path fill="none" stroke="#49f13c" d="M387.483,-667.85C386.383,-624.933 385.085,-574.302 383.94,-529.663"/>
<ellipse fill="none" stroke="#49f13c" cx="387.591" cy="-672.066" rx="4" ry="4"/>
<polygon fill="#49f13c" stroke="#49f13c" points="383.94,-529.641 388.182,-519.529 383.811,-524.642 383.683,-519.644 383.683,-519.644 383.683,-519.644 383.811,-524.642 379.185,-519.759 383.94,-529.641 383.94,-529.641"/>
</g>
<!-- User -->
<g id="node8" class="node"><title>User</title>
<path fill="none" stroke="black" d="M483.5,-188.5C483.5,-188.5 664.5,-188.5 664.5,-188.5 670.5,-188.5 676.5,-194.5 676.5,-200.5 676.5,-200.5 676.5,-627.5 676.5,-627.5 676.5,-633.5 670.5,-639.5 664.5,-639.5 664.5,-639.5 483.5,-639.5 483.5,-639.5 477.5,-639.5 471.5,-633.5 471.5,-627.5 471.5,-627.5 471.5,-200.5 471.5,-200.5 471.5,-194.5 477.5,-188.5 483.5,-188.5"/>
<text text-anchor="middle" x="574" y="-624.3" font-family="Times,serif" font-size="14.00">User</text>
<polyline fill="none" stroke="black" points="471.5,-616.5 676.5,-616.5 "/>
<text text-anchor="start" x="479.5" y="-601.3" font-family="Times,serif" font-size="14.00">id :integer</text>
<text text-anchor="start" x="479.5" y="-586.3" font-family="Times,serif" font-size="14.00">email :string</text>
<text text-anchor="start" x="479.5" y="-571.3" font-family="Times,serif" font-size="14.00">encrypted_password :string</text>
<text text-anchor="start" x="479.5" y="-556.3" font-family="Times,serif" font-size="14.00">reset_password_token :string</text>
<text text-anchor="start" x="479.5" y="-541.3" font-family="Times,serif" font-size="14.00">reset_password_sent_at :datetime</text>
<text text-anchor="start" x="479.5" y="-526.3" font-family="Times,serif" font-size="14.00">remember_created_at :datetime</text>
<text text-anchor="start" x="479.5" y="-511.3" font-family="Times,serif" font-size="14.00">sign_in_count :integer</text>
<text text-anchor="start" x="479.5" y="-496.3" font-family="Times,serif" font-size="14.00">current_sign_in_at :datetime</text>
<text text-anchor="start" x="479.5" y="-481.3" font-family="Times,serif" font-size="14.00">last_sign_in_at :datetime</text>
<text text-anchor="start" x="479.5" y="-466.3" font-family="Times,serif" font-size="14.00">current_sign_in_ip :string</text>
<text text-anchor="start" x="479.5" y="-451.3" font-family="Times,serif" font-size="14.00">last_sign_in_ip :string</text>
<text text-anchor="start" x="479.5" y="-436.3" font-family="Times,serif" font-size="14.00">confirmation_token :string</text>
<text text-anchor="start" x="479.5" y="-421.3" font-family="Times,serif" font-size="14.00">confirmed_at :datetime</text>
<text text-anchor="start" x="479.5" y="-406.3" font-family="Times,serif" font-size="14.00">confirmation_sent_at :datetime</text>
<text text-anchor="start" x="479.5" y="-391.3" font-family="Times,serif" font-size="14.00">unconfirmed_email :string</text>
<text text-anchor="start" x="479.5" y="-376.3" font-family="Times,serif" font-size="14.00">created_at :datetime</text>
<text text-anchor="start" x="479.5" y="-361.3" font-family="Times,serif" font-size="14.00">updated_at :datetime</text>
<text text-anchor="start" x="479.5" y="-346.3" font-family="Times,serif" font-size="14.00">first_name :string</text>
<text text-anchor="start" x="479.5" y="-331.3" font-family="Times,serif" font-size="14.00">last_name :string</text>
<text text-anchor="start" x="479.5" y="-316.3" font-family="Times,serif" font-size="14.00">login :string</text>
<text text-anchor="start" x="479.5" y="-301.3" font-family="Times,serif" font-size="14.00">avatar_file_name :string</text>
<text text-anchor="start" x="479.5" y="-286.3" font-family="Times,serif" font-size="14.00">avatar_content_type :string</text>
<text text-anchor="start" x="479.5" y="-271.3" font-family="Times,serif" font-size="14.00">avatar_file_size :integer</text>
<text text-anchor="start" x="479.5" y="-256.3" font-family="Times,serif" font-size="14.00">avatar_updated_at :datetime</text>
<text text-anchor="start" x="479.5" y="-241.3" font-family="Times,serif" font-size="14.00">profile :string</text>
<text text-anchor="start" x="479.5" y="-226.3" font-family="Times,serif" font-size="14.00">limit :integer</text>
<text text-anchor="start" x="479.5" y="-211.3" font-family="Times,serif" font-size="14.00">roles_mask :integer</text>
<text text-anchor="start" x="479.5" y="-196.3" font-family="Times,serif" font-size="14.00">role :string</text>
</g>
<!-- Channel&#45;&gt;User -->
<g id="edge2" class="edge"><title>Channel&#45;&gt;User</title>
<path fill="none" stroke="#46868a" d="M447.074,-667.366C452.19,-658.153 457.233,-648.926 462,-640 463.567,-637.065 465.141,-634.106 466.718,-631.125"/>
<polygon fill="#46868a" stroke="#46868a" points="447.026,-667.452 438.224,-673.992 444.59,-671.819 442.154,-676.185 442.154,-676.185 442.154,-676.185 444.59,-671.819 446.083,-678.377 447.026,-667.452 447.026,-667.452"/>
<polygon fill="#46868a" stroke="#46868a" points="466.799,-630.972 475.443,-624.225 469.13,-626.549 471.462,-622.126 471.462,-622.126 471.462,-622.126 469.13,-626.549 467.481,-620.028 466.799,-630.972 466.799,-630.972"/>
</g>
<!-- Comment -->
<g id="node4" class="node"><title>Comment</title>
<path fill="none" stroke="black" d="M347,-15.5C347,-15.5 457,-15.5 457,-15.5 463,-15.5 469,-21.5 469,-27.5 469,-27.5 469,-124.5 469,-124.5 469,-130.5 463,-136.5 457,-136.5 457,-136.5 347,-136.5 347,-136.5 341,-136.5 335,-130.5 335,-124.5 335,-124.5 335,-27.5 335,-27.5 335,-21.5 341,-15.5 347,-15.5"/>
<text text-anchor="middle" x="402" y="-121.3" font-family="Times,serif" font-size="14.00">Comment</text>
<polyline fill="none" stroke="black" points="335,-113.5 469,-113.5 "/>
<text text-anchor="start" x="343" y="-98.3" font-family="Times,serif" font-size="14.00">id :integer</text>
<text text-anchor="start" x="343" y="-83.3" font-family="Times,serif" font-size="14.00">user_id :integer</text>
<text text-anchor="start" x="343" y="-68.3" font-family="Times,serif" font-size="14.00">body :text</text>
<text text-anchor="start" x="343" y="-53.3" font-family="Times,serif" font-size="14.00">feed_id :integer</text>
<text text-anchor="start" x="343" y="-38.3" font-family="Times,serif" font-size="14.00">created_at :datetime</text>
<text text-anchor="start" x="343" y="-23.3" font-family="Times,serif" font-size="14.00">updated_at :datetime</text>
</g>
<!-- Feed&#45;&gt;Comment -->
<g id="edge3" class="edge"><title>Feed&#45;&gt;Comment</title>
<path fill="none" stroke="#4547e8" d="M388.058,-300.066C391.23,-249.319 394.873,-191.036 397.639,-146.774"/>
<ellipse fill="none" stroke="#4547e8" cx="387.808" cy="-304.077" rx="4" ry="4"/>
<polygon fill="#4547e8" stroke="#4547e8" points="397.645,-146.676 402.76,-136.976 397.957,-141.686 398.269,-136.696 398.269,-136.696 398.269,-136.696 397.957,-141.686 393.778,-136.415 397.645,-146.676 397.645,-146.676"/>
</g>
<!-- Role -->
<g id="node6" class="node"><title>Role</title>
<path fill="none" stroke="black" d="M519,-706.5C519,-706.5 629,-706.5 629,-706.5 635,-706.5 641,-712.5 641,-718.5 641,-718.5 641,-815.5 641,-815.5 641,-821.5 635,-827.5 629,-827.5 629,-827.5 519,-827.5 519,-827.5 513,-827.5 507,-821.5 507,-815.5 507,-815.5 507,-718.5 507,-718.5 507,-712.5 513,-706.5 519,-706.5"/>
<text text-anchor="middle" x="574" y="-812.3" font-family="Times,serif" font-size="14.00">Role</text>
<polyline fill="none" stroke="black" points="507,-804.5 641,-804.5 "/>
<text text-anchor="start" x="515" y="-789.3" font-family="Times,serif" font-size="14.00">id :integer</text>
<text text-anchor="start" x="515" y="-774.3" font-family="Times,serif" font-size="14.00">name :string</text>
<text text-anchor="start" x="515" y="-759.3" font-family="Times,serif" font-size="14.00">resource_id :integer</text>
<text text-anchor="start" x="515" y="-744.3" font-family="Times,serif" font-size="14.00">resource_type :string</text>
<text text-anchor="start" x="515" y="-729.3" font-family="Times,serif" font-size="14.00">created_at :datetime</text>
<text text-anchor="start" x="515" y="-714.3" font-family="Times,serif" font-size="14.00">updated_at :datetime</text>
</g>
<!-- Role&#45;&gt;User -->
<g id="edge4" class="edge"><title>Role&#45;&gt;User</title>
<path fill="none" stroke="#2a53fe" d="M574,-696.128C574,-682.012 574,-666.444 574,-650.094"/>
<polygon fill="#2a53fe" stroke="#2a53fe" points="574,-696.458 569.5,-706.458 574,-701.458 574,-706.458 574,-706.458 574,-706.458 574,-701.458 578.5,-706.458 574,-696.458 574,-696.458"/>
<polygon fill="#2a53fe" stroke="#2a53fe" points="574,-649.818 578.5,-639.817 574,-644.818 574,-639.818 574,-639.818 574,-639.818 574,-644.818 569.5,-639.818 574,-649.818 574,-649.818"/>
</g>
<!-- Service -->
<g id="node7" class="node"><title>Service</title>
<path fill="none" stroke="black" d="M519,-0.5C519,-0.5 629,-0.5 629,-0.5 635,-0.5 641,-6.5 641,-12.5 641,-12.5 641,-139.5 641,-139.5 641,-145.5 635,-151.5 629,-151.5 629,-151.5 519,-151.5 519,-151.5 513,-151.5 507,-145.5 507,-139.5 507,-139.5 507,-12.5 507,-12.5 507,-6.5 513,-0.5 519,-0.5"/>
<text text-anchor="middle" x="574" y="-136.3" font-family="Times,serif" font-size="14.00">Service</text>
<polyline fill="none" stroke="black" points="507,-128.5 641,-128.5 "/>
<text text-anchor="start" x="515" y="-113.3" font-family="Times,serif" font-size="14.00">id :integer</text>
<text text-anchor="start" x="515" y="-98.3" font-family="Times,serif" font-size="14.00">user_id :integer</text>
<text text-anchor="start" x="515" y="-83.3" font-family="Times,serif" font-size="14.00">provider :string</text>
<text text-anchor="start" x="515" y="-68.3" font-family="Times,serif" font-size="14.00">uid :string</text>
<text text-anchor="start" x="515" y="-53.3" font-family="Times,serif" font-size="14.00">uname :string</text>
<text text-anchor="start" x="515" y="-38.3" font-family="Times,serif" font-size="14.00">uemail :string</text>
<text text-anchor="start" x="515" y="-23.3" font-family="Times,serif" font-size="14.00">created_at :datetime</text>
<text text-anchor="start" x="515" y="-8.3" font-family="Times,serif" font-size="14.00">updated_at :datetime</text>
</g>
<!-- User&#45;&gt;Service -->
<g id="edge5" class="edge"><title>User&#45;&gt;Service</title>
<path fill="none" stroke="#2cb7ef" d="M574,-180.364C574,-174.145 574,-168.066 574,-162.168"/>
<ellipse fill="none" stroke="#2cb7ef" cx="574" cy="-184.416" rx="4" ry="4"/>
<polygon fill="#2cb7ef" stroke="#2cb7ef" points="574,-161.758 578.5,-151.758 574,-156.758 574,-151.758 574,-151.758 574,-151.758 574,-156.758 569.5,-151.758 574,-161.758 574,-161.758"/>
</g>
<!-- User&#45;&gt;Comment -->
<g id="edge6" class="edge"><title>User&#45;&gt;Comment</title>
<path fill="none" stroke="#90bea4" d="M467.729,-199.076C465.809,-195.353 463.898,-191.658 462,-188 454.881,-174.283 447.13,-159.697 439.634,-145.762"/>
<ellipse fill="none" stroke="#90bea4" cx="469.6" cy="-202.712" rx="4.00002" ry="4.00002"/>
<polygon fill="#90bea4" stroke="#90bea4" points="439.502,-145.516 438.716,-134.579 437.129,-141.115 434.755,-136.715 434.755,-136.715 434.755,-136.715 437.129,-141.115 430.795,-138.851 439.502,-145.516 439.502,-145.516"/>
</g>
</g>
</svg>
