<?xml version="1.0" encoding="UTF-8" standalone="no"?>
<!DOCTYPE svg PUBLIC "-//W3C//DTD SVG 1.1//EN"
 "http://www.w3.org/Graphics/SVG/1.1/DTD/svg11.dtd">
<!-- Generated by graphviz version 2.30.1 (20130529.1541)
 -->
<!-- Title: models_diagram Pages: 1 -->
<svg width="630pt" height="230pt"
 viewBox="0.00 0.00 630.00 230.00" xmlns="http://www.w3.org/2000/svg" xmlns:xlink="http://www.w3.org/1999/xlink">
<g id="graph0" class="graph" transform="scale(1 1) rotate(0) translate(4 226)">
<title>models_diagram</title>
<polygon fill="white" stroke="white" points="-4,5 -4,-226 627,-226 627,5 -4,5"/>
<!-- _diagram_info -->
<g id="node1" class="node"><title>_diagram_info</title>
<text text-anchor="start" x="8" y="-207.6" font-family="Times,serif" font-size="13.00">Models diagram</text>
<text text-anchor="start" x="8" y="-193.6" font-family="Times,serif" font-size="13.00">Date: May 29 2013 &#45; 22:16</text>
<text text-anchor="start" x="8" y="-179.6" font-family="Times,serif" font-size="13.00">Migration version: 20130529153624</text>
<text text-anchor="start" x="8" y="-165.6" font-family="Times,serif" font-size="13.00">Generated by RailRoady 1.1.0</text>
<text text-anchor="start" x="8" y="-151.6" font-family="Times,serif" font-size="13.00">http://railroady.prestonlee.com</text>
</g>
<!-- Ability -->
<g id="node2" class="node"><title>Ability</title>
<polygon fill="none" stroke="black" points="283.25,-201 226.75,-201 226.75,-165 283.25,-165 283.25,-201"/>
<text text-anchor="middle" x="255" y="-179.3" font-family="Times,serif" font-size="14.00">Ability</text>
</g>
<!-- Channel -->
<g id="node3" class="node"><title>Channel</title>
<ellipse fill="none" stroke="black" cx="344" cy="-183" rx="42.3701" ry="18"/>
<text text-anchor="middle" x="344" y="-179.3" font-family="Times,serif" font-size="14.00">Channel</text>
</g>
<!-- Feed -->
<g id="node6" class="node"><title>Feed</title>
<ellipse fill="none" stroke="black" cx="340" cy="-90" rx="28.3955" ry="18"/>
<text text-anchor="middle" x="340" y="-86.3" font-family="Times,serif" font-size="14.00">Feed</text>
</g>
<!-- Channel&#45;&gt;Feed -->
<g id="edge1" class="edge"><title>Channel&#45;&gt;Feed</title>
<path fill="none" stroke="#f80b2b" d="M342.889,-156.729C342.362,-144.725 341.73,-130.362 341.192,-118.129"/>
<ellipse fill="none" stroke="#f80b2b" cx="343.072" cy="-160.887" rx="4" ry="4"/>
<polygon fill="#f80b2b" stroke="#f80b2b" points="341.188,-118.03 345.245,-107.842 340.969,-113.035 340.749,-108.04 340.749,-108.04 340.749,-108.04 340.969,-113.035 336.253,-108.237 341.188,-118.03 341.188,-118.03"/>
</g>
<!-- User -->
<g id="node9" class="node"><title>User</title>
<ellipse fill="none" stroke="black" cx="435" cy="-90" rx="28.3955" ry="18"/>
<text text-anchor="middle" x="435" y="-86.3" font-family="Times,serif" font-size="14.00">User</text>
</g>
<!-- Channel&#45;&gt;User -->
<g id="edge2" class="edge"><title>Channel&#45;&gt;User</title>
<path fill="none" stroke="#e626c3" d="M367.145,-158.855C381.326,-144.674 399.364,-126.636 413.276,-112.724"/>
<polygon fill="#e626c3" stroke="#e626c3" points="366.922,-159.078 356.669,-162.967 363.387,-162.613 359.851,-166.149 359.851,-166.149 359.851,-166.149 363.387,-162.613 363.033,-169.331 366.922,-159.078 366.922,-159.078"/>
<polygon fill="#e626c3" stroke="#e626c3" points="413.459,-112.541 423.712,-108.651 416.995,-109.005 420.531,-105.469 420.531,-105.469 420.531,-105.469 416.995,-109.005 417.349,-102.288 413.459,-112.541 413.459,-112.541"/>
</g>
<!-- Comment -->
<g id="node4" class="node"><title>Comment</title>
<ellipse fill="none" stroke="black" cx="333" cy="-18" rx="48.1437" ry="18"/>
<text text-anchor="middle" x="333" y="-14.3" font-family="Times,serif" font-size="14.00">Comment</text>
</g>
<!-- FavouriteFeed -->
<g id="node5" class="node"><title>FavouriteFeed</title>
<ellipse fill="none" stroke="black" cx="558" cy="-18" rx="64.0172" ry="18"/>
<text text-anchor="middle" x="558" y="-14.3" font-family="Times,serif" font-size="14.00">FavouriteFeed</text>
</g>
<!-- Feed&#45;&gt;Comment -->
<g id="edge3" class="edge"><title>Feed&#45;&gt;Comment</title>
<path fill="none" stroke="#1464b5" d="M337.464,-63.6398C336.906,-58.0629 336.313,-52.1319 335.748,-46.4761"/>
<ellipse fill="none" stroke="#1464b5" cx="337.872" cy="-67.7165" rx="4" ry="4"/>
<polygon fill="#1464b5" stroke="#1464b5" points="335.706,-46.0547 339.188,-35.6565 335.208,-41.0795 334.71,-36.1043 334.71,-36.1043 334.71,-36.1043 335.208,-41.0795 330.233,-36.5521 335.706,-46.0547 335.706,-46.0547"/>
</g>
<!-- Role -->
<g id="node7" class="node"><title>Role</title>
<ellipse fill="none" stroke="black" cx="435" cy="-183" rx="28.3955" ry="18"/>
<text text-anchor="middle" x="435" y="-179.3" font-family="Times,serif" font-size="14.00">Role</text>
</g>
<!-- Role&#45;&gt;User -->
<g id="edge4" class="edge"><title>Role&#45;&gt;User</title>
<path fill="none" stroke="#17d1ef" d="M435,-154.549C435,-143.083 435,-129.792 435,-118.339"/>
<polygon fill="#17d1ef" stroke="#17d1ef" points="435,-154.884 430.5,-164.884 435,-159.884 435,-164.884 435,-164.884 435,-164.884 435,-159.884 439.5,-164.884 435,-154.884 435,-154.884"/>
<polygon fill="#17d1ef" stroke="#17d1ef" points="435,-118.04 439.5,-108.04 435,-113.04 435,-108.04 435,-108.04 435,-108.04 435,-113.04 430.5,-108.04 435,-118.04 435,-118.04"/>
</g>
<!-- Service -->
<g id="node8" class="node"><title>Service</title>
<ellipse fill="none" stroke="black" cx="437" cy="-18" rx="38.0212" ry="18"/>
<text text-anchor="middle" x="437" y="-14.3" font-family="Times,serif" font-size="14.00">Service</text>
</g>
<!-- User&#45;&gt;Service -->
<g id="edge5" class="edge"><title>User&#45;&gt;Service</title>
<path fill="none" stroke="#25bf24" d="M435.725,-63.6398C435.884,-58.0629 436.053,-52.1319 436.215,-46.4761"/>
<ellipse fill="none" stroke="#25bf24" cx="435.609" cy="-67.6983" rx="4" ry="4"/>
<polygon fill="#25bf24" stroke="#25bf24" points="436.226,-46.1003 441.009,-36.2329 436.368,-41.1023 436.511,-36.1043 436.511,-36.1043 436.511,-36.1043 436.368,-41.1023 432.013,-35.9758 436.226,-46.1003 436.226,-46.1003"/>
</g>
<!-- User&#45;&gt;Comment -->
<g id="edge6" class="edge"><title>User&#45;&gt;Comment</title>
<path fill="none" stroke="#0ed571" d="M409.46,-71.4722C395.487,-61.8835 378.086,-49.9416 363.416,-39.8737"/>
<ellipse fill="none" stroke="#0ed571" cx="412.994" cy="-73.8975" rx="4.00002" ry="4.00002"/>
<polygon fill="#0ed571" stroke="#0ed571" points="363.385,-39.8528 357.687,-30.484 359.263,-37.0236 355.14,-34.1943 355.14,-34.1943 355.14,-34.1943 359.263,-37.0236 352.594,-37.9047 363.385,-39.8528 363.385,-39.8528"/>
</g>
<!-- User&#45;&gt;FavouriteFeed -->
<g id="edge7" class="edge"><title>User&#45;&gt;FavouriteFeed</title>
<path fill="none" stroke="#61b97a" d="M462.455,-73.3751C480.029,-63.3736 503.018,-50.2903 522.042,-39.4637"/>
<ellipse fill="none" stroke="#61b97a" cx="458.787" cy="-75.4624" rx="4.00002" ry="4.00002"/>
<polygon fill="#61b97a" stroke="#61b97a" points="522.054,-39.457 532.971,-38.4218 526.4,-36.9839 530.745,-34.5108 530.745,-34.5108 530.745,-34.5108 526.4,-36.9839 528.519,-30.5998 522.054,-39.457 522.054,-39.457"/>
</g>
</g>
</svg>
